<svg xmlns="http://www.w3.org/2000/svg" width="1400" height="760">
<rect width="100%" height="100%" fill="white"/>
<text x="80" y="24" font-size="20" font-family="Arial">6 Rewarming Curves Comparison</text>
<line x1="80" y1="690" x2="880" y2="690" stroke="black"/>
<line x1="80" y1="40" x2="80" y2="690" stroke="black"/>
<line x1="80.0" y1="40" x2="80.0" y2="690" stroke="#eee"/>
<text x="80.0" y="708" font-size="11" text-anchor="middle">0.0</text>
<line x1="180.0" y1="40" x2="180.0" y2="690" stroke="#eee"/>
<text x="180.0" y="708" font-size="11" text-anchor="middle">9.8</text>
<line x1="280.0" y1="40" x2="280.0" y2="690" stroke="#eee"/>
<text x="280.0" y="708" font-size="11" text-anchor="middle">19.6</text>
<line x1="380.0" y1="40" x2="380.0" y2="690" stroke="#eee"/>
<text x="380.0" y="708" font-size="11" text-anchor="middle">29.3</text>
<line x1="480.0" y1="40" x2="480.0" y2="690" stroke="#eee"/>
<text x="480.0" y="708" font-size="11" text-anchor="middle">39.1</text>
<line x1="580.0" y1="40" x2="580.0" y2="690" stroke="#eee"/>
<text x="580.0" y="708" font-size="11" text-anchor="middle">48.9</text>
<line x1="680.0" y1="40" x2="680.0" y2="690" stroke="#eee"/>
<text x="680.0" y="708" font-size="11" text-anchor="middle">58.7</text>
<line x1="780.0" y1="40" x2="780.0" y2="690" stroke="#eee"/>
<text x="780.0" y="708" font-size="11" text-anchor="middle">68.4</text>
<line x1="880.0" y1="40" x2="880.0" y2="690" stroke="#eee"/>
<text x="880.0" y="708" font-size="11" text-anchor="middle">78.2</text>
<line x1="80" y1="690.0" x2="880" y2="690.0" stroke="#eee"/>
<text x="72" y="694.0" font-size="11" text-anchor="end">3.5</text>
<line x1="80" y1="581.7" x2="880" y2="581.7" stroke="#eee"/>
<text x="72" y="585.7" font-size="11" text-anchor="end">7.5</text>
<line x1="80" y1="473.3" x2="880" y2="473.3" stroke="#eee"/>
<text x="72" y="477.3" font-size="11" text-anchor="end">11.5</text>
<line x1="80" y1="365.0" x2="880" y2="365.0" stroke="#eee"/>
<text x="72" y="369.0" font-size="11" text-anchor="end">15.5</text>
<line x1="80" y1="256.7" x2="880" y2="256.7" stroke="#eee"/>
<text x="72" y="260.7" font-size="11" text-anchor="end">19.5</text>
<line x1="80" y1="148.3" x2="880" y2="148.3" stroke="#eee"/>
<text x="72" y="152.3" font-size="11" text-anchor="end">23.5</text>
<line x1="80" y1="40.0" x2="880" y2="40.0" stroke="#eee"/>
<text x="72" y="44.0" font-size="11" text-anchor="end">27.5</text>
<polyline points="80.00,676.46 80.62,670.21 81.23,664.02 81.85,657.89 82.46,651.82 83.08,645.81 83.69,639.87 84.31,633.98 84.92,628.15 85.54,622.38 86.15,616.66 86.77,611.01 87.38,605.41 88.00,599.86 88.61,594.37 89.23,588.94 89.84,583.56 90.46,578.23 91.07,572.96 91.69,567.74 92.30,562.57 92.92,557.45 93.53,552.39 94.15,547.37 94.76,542.41 95.38,537.49 95.99,532.62 96.61,527.80 97.22,523.03 97.84,518.31 98.45,513.64 99.07,509.01 99.68,504.42 100.30,499.89 100.91,495.39 101.53,490.95 102.14,486.54 102.76,482.18 103.37,477.87 103.99,473.60 104.60,469.37 105.22,465.18 105.83,461.03 106.45,456.93 107.06,452.86 107.68,448.84 108.29,444.86 108.91,440.91 109.52,437.01 110.14,433.14 110.75,429.32 111.37,425.53 111.98,421.78 112.60,418.06 113.21,414.39 113.83,410.75 114.44,407.14 115.06,403.58 115.67,400.04 116.29,396.55 116.90,393.09 117.52,389.66 118.13,386.26 118.75,382.91 119.36,379.58 119.98,376.29 120.59,373.03 121.21,369.80 121.82,366.60 122.44,363.44 123.05,360.31 123.67,357.21 124.28,354.14 124.90,351.10 125.51,348.09 126.13,345.11 126.74,342.16 127.36,339.24 127.97,336.35 128.59,333.49 129.20,330.66 129.82,327.85 130.43,325.08 131.05,322.33 131.66,319.60 132.28,316.91 132.89,314.24 133.51,311.60 134.12,308.99 134.74,306.40 135.35,303.83 135.97,301.30 136.58,298.78 137.20,296.30 137.81,293.83 138.43,291.40 139.04,288.98 139.66,286.59 140.27,284.23 140.89,281.89 141.50,279.57 142.12,277.27 142.73,275.00 143.35,272.75 143.96,270.52 144.58,268.32 145.19,266.13 145.81,263.97 146.42,261.83 147.04,259.71 147.65,257.61 148.27,255.54 148.88,253.48 149.50,251.45 150.11,249.43 150.73,247.44 151.34,245.46 151.96,243.50 152.57,241.57 153.19,239.65 153.80,237.75 154.42,235.88 155.03,234.02 155.65,232.17 156.27,230.35 156.88,228.55 157.50,226.76 158.11,224.99 158.73,223.24 159.34,221.50 159.96,219.79 160.57,218.09 161.19,216.41 161.80,214.74 162.42,213.09 163.03,211.46 163.65,209.84 164.26,208.24 164.88,206.66 165.49,205.09 166.11,203.53 166.72,202.00 167.34,200.47 167.95,198.97 168.57,197.48 169.18,196.00 169.80,194.54 170.41,193.09 171.03,191.65 171.64,190.24 172.26,188.83 172.87,187.44 173.49,186.06 174.10,184.70 174.72,183.35 175.33,182.01 175.95,180.69 176.56,179.38 177.18,178.08 177.79,176.80 178.41,175.53 179.02,174.27 179.64,173.02 180.25,171.79 180.87,170.57 181.48,169.36 182.10,168.16 182.71,166.98 183.33,165.81 183.94,164.64 184.56,163.49 185.17,162.36 185.79,161.23 186.40,160.11 187.02,159.01 187.63,157.92 188.25,156.83 188.86,155.76 189.48,154.70 190.09,153.65 190.71,152.61 191.32,151.58 191.94,150.56 192.55,149.55 193.17,148.55 193.78,147.56 194.40,146.58 195.01,145.61 195.63,144.65 196.24,143.70 196.86,142.76 197.47,141.83 198.09,140.91 198.70,139.99 199.32,139.09 199.93,138.19 200.55,137.31 201.16,136.43 201.78,135.56 202.39,134.70 203.01,133.85 203.62,133.01 204.24,132.17 204.85,131.35 205.47,130.53 206.08,129.72 206.70,128.92 207.31,128.12 207.93,127.34 208.54,126.56 209.16,125.79 209.77,125.03 210.39,124.27 211.00,123.53 211.62,122.79 212.23,122.05 212.85,121.33 213.46,120.61 214.08,119.90 214.69,119.20 215.31,118.50 215.92,117.81 216.54,117.13 217.15,116.45 217.77,115.78 218.38,115.12 219.00,114.46 219.61,113.81 220.23,113.17 220.84,112.53 221.46,111.90 222.07,111.28 222.69,110.66 223.30,110.05 223.92,109.44 224.53,108.85 225.15,108.25 225.76,107.66 226.38,107.08 226.99,106.51 227.61,105.94 228.22,105.37 228.84,104.81 229.45,104.26 230.07,103.71 230.69,103.17 231.30,102.63 231.92,102.10 232.53,101.57 233.15,101.05 233.76,100.54 234.38,100.03 234.99,99.52 235.61,99.02 236.22,98.53 236.84,98.03 237.45,97.55 238.07,97.07 238.68,96.59 239.30,96.12 239.91,95.65 240.53,95.19 241.14,94.73 241.76,94.28 242.37,93.83 242.99,93.39 243.60,92.95 244.22,92.52 244.83,92.08 245.45,91.66 246.06,91.24 246.68,90.82 247.29,90.40 247.91,89.99 248.52,89.59 249.14,89.19 249.75,88.79 250.37,88.40 250.98,88.01 251.60,87.62 252.21,87.24 252.83,86.86 253.44,86.49 254.06,86.12 254.67,85.75 255.29,85.39 255.90,85.03 256.52,84.67 257.13,84.32 257.75,83.97 258.36,83.62 258.98,83.28 259.59,82.94 260.21,82.61 260.82,82.28 261.44,81.95 262.05,81.62 262.67,81.30 263.28,80.98 263.90,80.66 264.51,80.35 265.13,80.04 265.74,79.74 266.36,79.43 266.97,79.13 267.59,78.84 268.20,78.54 268.82,78.25 269.43,77.96 270.05,77.68 270.66,77.39 271.28,77.11 271.89,76.84 272.51,76.56 273.12,76.29 273.74,76.02 274.35,75.76 274.97,75.49 275.58,75.23 276.20,74.97 276.81,74.72 277.43,74.46 278.04,74.21 278.66,73.96 279.27,73.72 279.89,73.48 280.50,73.23 281.12,73.00 281.73,72.76 282.35,72.53 282.96,72.29 283.58,72.07 284.19,71.84 284.81,71.61 285.42,71.39 286.04,71.17 286.65,70.95 287.27,70.74 287.88,70.52 288.50,70.31 289.11,70.10 289.73,69.90 290.34,69.69 290.96,69.49 291.57,69.29 292.19,69.09 292.80,68.89 293.42,68.70 294.03,68.50 294.65,68.31 295.26,68.12 295.88,67.93 296.49,67.75 297.11,67.56 297.72,67.38 298.34,67.20 298.95,67.02 299.57,66.85 300.18,66.67 300.80,66.50 301.41,66.33 302.03,66.16 302.64,65.99 303.26,65.82 303.87,65.66 304.49,65.50 305.10,65.34 305.72,65.18 306.34,65.02 306.95,64.86 307.57,64.71 308.18,64.55 308.80,64.40 309.41,64.25 310.03,64.10 310.64,63.95 311.26,63.81 311.87,63.66 312.49,63.52 313.10,63.38 313.72,63.24 314.33,63.10 314.95,62.96 315.56,62.83 316.18,62.69 316.79,62.56 317.41,62.43 318.02,62.30 318.64,62.17 319.25,62.04 319.87,61.91 320.48,61.79 321.10,61.66 321.71,61.54 322.33,61.42 322.94,61.30 323.56,61.18 324.17,61.06 324.79,60.94 325.40,60.83 326.02,60.71 326.63,60.60 327.25,60.48 327.86,60.37 328.48,60.26 329.09,60.15 329.71,60.05 330.32,59.94 330.94,59.83 331.55,59.73 332.17,59.62 332.78,59.52 333.40,59.42 334.01,59.32 334.63,59.22 335.24,59.12 335.86,59.02 336.47,58.93 337.09,58.83 337.70,58.74 338.32,58.64 338.93,58.55 339.55,58.46 340.16,58.37 340.78,58.28 341.39,58.19 342.01,58.10 342.62,58.01 343.24,57.92 343.85,57.84 344.47,57.75 345.08,57.67 345.70,57.59 346.31,57.50 346.93,57.42 347.54,57.34 348.16,57.26 348.77,57.18 349.39,57.10 350.00,57.02 350.62,56.95 351.23,56.87 351.85,56.80 352.46,56.72 353.08,56.65 353.69,56.58 354.31,56.50 354.92,56.43 355.54,56.36 356.15,56.29 356.77,56.22 357.38,56.15 358.00,56.08 358.61,56.02 359.23,55.95 359.84,55.88 360.46,55.82 361.07,55.75 361.69,55.69 362.30,55.63 362.92,55.56 363.53,55.50 364.15,55.44 364.76,55.38 365.38,55.32 365.99,55.26 366.61,55.20 367.22,55.14 367.84,55.08 368.45,55.02 369.07,54.97 369.68,54.91 370.30,54.85 370.91,54.80 371.53,54.74 372.14,54.69 372.76,54.64 373.37,54.58 373.99,54.53 374.60,54.48 375.22,54.43 375.83,54.38 376.45,54.33 377.06,54.28 377.68,54.23 378.29,54.18 378.91,54.13 379.52,54.08 380.14,54.03 380.75,53.99 381.37,53.94 381.99,53.89 382.60,53.85 383.22,53.80 383.83,53.76 384.45,53.71 385.06,53.67 385.68,53.63 386.29,53.58 386.91,53.54" fill="none" stroke="#d62728" stroke-width="2.2"/>
<line x1="890" y1="60" x2="910" y2="60" stroke="#d62728" stroke-width="3"/>
<text x="916" y="64" font-size="11" font-family="Arial">1) Hyperbolic / negative exponential | peak=3.859 °C/min</text>
<polyline points="80.00,676.46 80.62,676.42 81.23,676.37 81.85,676.33 82.46,676.29 83.08,676.24 83.69,676.20 84.31,676.15 84.92,676.11 85.54,676.06 86.15,676.01 86.77,675.97 87.38,675.92 88.00,675.87 88.61,675.82 89.23,675.77 89.84,675.72 90.46,675.67 91.07,675.62 91.69,675.57 92.30,675.52 92.92,675.47 93.53,675.42 94.15,675.36 94.76,675.31 95.38,675.26 95.99,675.20 96.61,675.15 97.22,675.09 97.84,675.03 98.45,674.98 99.07,674.92 99.68,674.86 100.30,674.80 100.91,674.74 101.53,674.68 102.14,674.62 102.76,674.56 103.37,674.50 103.99,674.44 104.60,674.37 105.22,674.31 105.83,674.25 106.45,674.18 107.06,674.12 107.68,674.05 108.29,673.98 108.91,673.92 109.52,673.85 110.14,673.78 110.75,673.71 111.37,673.64 111.98,673.57 112.60,673.50 113.21,673.42 113.83,673.35 114.44,673.28 115.06,673.20 115.67,673.13 116.29,673.05 116.90,672.98 117.52,672.90 118.13,672.82 118.75,672.74 119.36,672.66 119.98,672.58 120.59,672.50 121.21,672.41 121.82,672.33 122.44,672.25 123.05,672.16 123.67,672.08 124.28,671.99 124.90,671.90 125.51,671.81 126.13,671.72 126.74,671.63 127.36,671.54 127.97,671.45 128.59,671.36 129.20,671.26 129.82,671.17 130.43,671.07 131.05,670.98 131.66,670.88 132.28,670.78 132.89,670.68 133.51,670.58 134.12,670.48 134.74,670.38 135.35,670.27 135.97,670.17 136.58,670.06 137.20,669.95 137.81,669.85 138.43,669.74 139.04,669.63 139.66,669.52 140.27,669.40 140.89,669.29 141.50,669.17 142.12,669.06 142.73,668.94 143.35,668.82 143.96,668.70 144.58,668.58 145.19,668.46 145.81,668.34 146.42,668.21 147.04,668.09 147.65,667.96 148.27,667.83 148.88,667.70 149.50,667.57 150.11,667.44 150.73,667.31 151.34,667.17 151.96,667.04 152.57,666.90 153.19,666.76 153.80,666.62 154.42,666.48 155.03,666.34 155.65,666.19 156.27,666.05 156.88,665.90 157.50,665.75 158.11,665.60 158.73,665.45 159.34,665.29 159.96,665.14 160.57,664.98 161.19,664.82 161.80,664.66 162.42,664.50 163.03,664.34 163.65,664.18 164.26,664.01 164.88,663.84 165.49,663.67 166.11,663.50 166.72,663.33 167.34,663.15 167.95,662.98 168.57,662.80 169.18,662.62 169.80,662.44 170.41,662.25 171.03,662.07 171.64,661.88 172.26,661.69 172.87,661.50 173.49,661.30 174.10,661.11 174.72,660.91 175.33,660.71 175.95,660.51 176.56,660.31 177.18,660.10 177.79,659.90 178.41,659.69 179.02,659.48 179.64,659.26 180.25,659.05 180.87,658.83 181.48,658.61 182.10,658.39 182.71,658.16 183.33,657.93 183.94,657.71 184.56,657.47 185.17,657.24 185.79,657.00 186.40,656.77 187.02,656.52 187.63,656.28 188.25,656.04 188.86,655.79 189.48,655.54 190.09,655.28 190.71,655.03 191.32,654.77 191.94,654.51 192.55,654.24 193.17,653.98 193.78,653.71 194.40,653.44 195.01,653.16 195.63,652.89 196.24,652.61 196.86,652.32 197.47,652.04 198.09,651.75 198.70,651.46 199.32,651.16 199.93,650.87 200.55,650.57 201.16,650.26 201.78,649.96 202.39,649.65 203.01,649.34 203.62,649.02 204.24,648.70 204.85,648.38 205.47,648.05 206.08,647.72 206.70,647.39 207.31,647.06 207.93,646.72 208.54,646.38 209.16,646.03 209.77,645.68 210.39,645.33 211.00,644.97 211.62,644.61 212.23,644.25 212.85,643.88 213.46,643.51 214.08,643.14 214.69,642.76 215.31,642.38 215.92,641.99 216.54,641.60 217.15,641.21 217.77,640.81 218.38,640.41 219.00,640.01 219.61,639.60 220.23,639.18 220.84,638.76 221.46,638.34 222.07,637.92 222.69,637.48 223.30,637.05 223.92,636.61 224.53,636.17 225.15,635.72 225.76,635.27 226.38,634.81 226.99,634.35 227.61,633.88 228.22,633.41 228.84,632.93 229.45,632.45 230.07,631.97 230.69,631.47 231.30,630.98 231.92,630.48 232.53,629.97 233.15,629.46 233.76,628.95 234.38,628.43 234.99,627.90 235.61,627.37 236.22,626.83 236.84,626.29 237.45,625.74 238.07,625.19 238.68,624.63 239.30,624.06 239.91,623.49 240.53,622.92 241.14,622.34 241.76,621.75 242.37,621.15 242.99,620.56 243.60,619.95 244.22,619.34 244.83,618.72 245.45,618.10 246.06,617.47 246.68,616.83 247.29,616.19 247.91,615.54 248.52,614.88 249.14,614.22 249.75,613.55 250.37,612.87 250.98,612.19 251.60,611.50 252.21,610.80 252.83,610.10 253.44,609.39 254.06,608.67 254.67,607.95 255.29,607.21 255.90,606.47 256.52,605.73 257.13,604.97 257.75,604.21 258.36,603.44 258.98,602.66 259.59,601.88 260.21,601.08 260.82,600.28 261.44,599.47 262.05,598.65 262.67,597.83 263.28,596.99 263.90,596.15 264.51,595.30 265.13,594.44 265.74,593.57 266.36,592.69 266.97,591.81 267.59,590.91 268.20,590.01 268.82,589.09 269.43,588.17 270.05,587.24 270.66,586.30 271.28,585.35 271.89,584.39 272.51,583.42 273.12,582.44 273.74,581.45 274.35,580.45 274.97,579.44 275.58,578.42 276.20,577.39 276.81,576.35 277.43,575.30 278.04,574.24 278.66,573.17 279.27,572.08 279.89,570.99 280.50,569.89 281.12,568.77 281.73,567.64 282.35,566.51 282.96,565.36 283.58,564.19 284.19,563.02 284.81,561.84 285.42,560.64 286.04,559.43 286.65,558.21 287.27,556.98 287.88,555.73 288.50,554.47 289.11,553.20 289.73,551.92 290.34,550.62 290.96,549.31 291.57,547.99 292.19,546.65 292.80,545.30 293.42,543.94 294.03,542.56 294.65,541.17 295.26,539.76 295.88,538.35 296.49,536.91 297.11,535.46 297.72,534.00 298.34,532.52 298.95,531.03 299.57,529.53 300.18,528.00 300.80,526.47 301.41,524.91 302.03,523.34 302.64,521.76 303.26,520.16 303.87,518.54 304.49,516.91 305.10,515.26 305.72,513.59 306.34,511.91 306.95,510.21 307.57,508.50 308.18,506.76 308.80,505.01 309.41,503.24 310.03,501.45 310.64,499.65 311.26,497.83 311.87,495.98 312.49,494.12 313.10,492.25 313.72,490.35 314.33,488.43 314.95,486.50 315.56,484.54 316.18,482.56 316.79,480.57 317.41,478.55 318.02,476.52 318.64,474.46 319.25,472.39 319.87,470.29 320.48,468.17 321.10,466.03 321.71,463.87 322.33,461.68 322.94,459.48 323.56,457.25 324.17,455.00 324.79,452.73 325.40,450.43 326.02,448.11 326.63,445.77 327.25,443.41 327.86,441.02 328.48,438.60 329.09,436.17 329.71,433.70 330.32,431.22 330.94,428.70 331.55,426.17 332.17,423.60 332.78,421.01 333.40,418.40 334.01,415.76 334.63,413.09 335.24,410.40 335.86,407.67 336.47,404.92 337.09,402.15 337.70,399.34 338.32,396.51 338.93,393.65 339.55,390.76 340.16,387.84 340.78,384.89 341.39,381.91 342.01,378.90 342.62,375.86 343.24,372.79 343.85,369.69 344.47,366.56 345.08,363.40 345.70,360.20 346.31,356.97 346.93,353.71 347.54,350.42 348.16,347.09 348.77,343.74 349.39,340.34 350.00,336.91 350.62,333.45 351.23,329.96 351.85,326.42 352.46,322.86 353.08,319.25 353.69,315.61 354.31,311.94 354.92,308.22 355.54,304.47 356.15,300.68 356.77,296.86 357.38,292.99 358.00,289.09 358.61,285.14 359.23,281.16 359.84,277.14 360.46,273.07 361.07,268.97 361.69,264.82 362.30,260.63 362.92,256.40 363.53,252.13 364.15,247.82 364.76,243.46 365.38,239.05 365.99,234.61 366.61,230.11 367.22,225.58 367.84,220.99 368.45,216.36 369.07,211.69 369.68,206.97 370.30,202.20 370.91,197.38 371.53,192.51 372.14,187.59 372.76,182.63 373.37,177.61 373.99,172.55 374.60,167.43 375.22,162.26 375.83,157.04 376.45,151.77 377.06,146.44 377.68,141.06 378.29,135.63 378.91,130.14 379.52,124.59 380.14,118.99 380.75,113.34 381.37,107.62 381.99,101.85 382.60,96.02 383.22,90.13 383.83,84.19 384.45,78.18 385.06,72.11 385.68,65.98 386.29,59.79 386.91,53.54" fill="none" stroke="#1f77b4" stroke-width="2.2"/>
<line x1="890" y1="78" x2="910" y2="78" stroke="#1f77b4" stroke-width="3"/>
<text x="916" y="82" font-size="11" font-family="Arial">2) Natural positive exponential | peak=3.859 °C/min</text>
<polyline points="80.00,676.46 80.62,675.21 81.23,673.96 81.85,672.71 82.46,671.47 83.08,670.22 83.69,668.97 84.31,667.72 84.92,666.47 85.54,665.22 86.15,663.98 86.77,662.73 87.38,661.48 88.00,660.23 88.61,658.98 89.23,657.73 89.84,656.49 90.46,655.24 91.07,653.99 91.69,652.74 92.30,651.49 92.92,650.24 93.53,649.00 94.15,647.75 94.76,646.50 95.38,645.25 95.99,644.00 96.61,642.75 97.22,641.51 97.84,640.26 98.45,639.01 99.07,637.76 99.68,636.51 100.30,635.26 100.91,634.02 101.53,632.77 102.14,631.52 102.76,630.27 103.37,629.02 103.99,627.77 104.60,626.53 105.22,625.28 105.83,624.03 106.45,622.78 107.06,621.53 107.68,620.28 108.29,619.04 108.91,617.79 109.52,616.54 110.14,615.29 110.75,614.04 111.37,612.79 111.98,611.55 112.60,610.30 113.21,609.05 113.83,607.80 114.44,606.55 115.06,605.30 115.67,604.06 116.29,602.81 116.90,601.56 117.52,600.31 118.13,599.06 118.75,597.81 119.36,596.57 119.98,595.32 120.59,594.07 121.21,592.82 121.82,591.57 122.44,590.32 123.05,589.08 123.67,587.83 124.28,586.58 124.90,585.33 125.51,584.08 126.13,582.83 126.74,581.59 127.36,580.34 127.97,579.09 128.59,577.84 129.20,576.59 129.82,575.34 130.43,574.10 131.05,572.85 131.66,571.60 132.28,570.35 132.89,569.10 133.51,567.85 134.12,566.61 134.74,565.36 135.35,564.11 135.97,562.86 136.58,561.61 137.20,560.36 137.81,559.12 138.43,557.87 139.04,556.62 139.66,555.37 140.27,554.12 140.89,552.87 141.50,551.63 142.12,550.38 142.73,549.13 143.35,547.88 143.96,546.63 144.58,545.38 145.19,544.14 145.81,542.89 146.42,541.64 147.04,540.39 147.65,539.14 148.27,537.89 148.88,536.65 149.50,535.40 150.11,534.15 150.73,532.90 151.34,531.65 151.96,530.40 152.57,529.16 153.19,527.91 153.80,526.66 154.42,525.41 155.03,524.16 155.65,522.91 156.27,521.67 156.88,520.42 157.50,519.17 158.11,517.92 158.73,516.67 159.34,515.42 159.96,514.18 160.57,512.93 161.19,511.68 161.80,510.43 162.42,509.18 163.03,507.93 163.65,506.69 164.26,505.44 164.88,504.19 165.49,502.94 166.11,501.69 166.72,500.44 167.34,499.20 167.95,497.95 168.57,496.70 169.18,495.45 169.80,494.20 170.41,492.95 171.03,491.71 171.64,490.46 172.26,489.21 172.87,487.96 173.49,486.71 174.10,485.46 174.72,484.22 175.33,482.97 175.95,481.72 176.56,480.47 177.18,479.22 177.79,477.97 178.41,476.73 179.02,475.48 179.64,474.23 180.25,472.98 180.87,471.73 181.48,470.48 182.10,469.24 182.71,467.99 183.33,466.74 183.94,465.49 184.56,464.24 185.17,462.99 185.79,461.75 186.40,460.50 187.02,459.25 187.63,458.00 188.25,456.75 188.86,455.50 189.48,454.26 190.09,453.01 190.71,451.76 191.32,450.51 191.94,449.26 192.55,448.01 193.17,446.77 193.78,445.52 194.40,444.27 195.01,443.02 195.63,441.77 196.24,440.52 196.86,439.28 197.47,438.03 198.09,436.78 198.70,435.53 199.32,434.28 199.93,433.03 200.55,431.79 201.16,430.54 201.78,429.29 202.39,428.04 203.01,426.79 203.62,425.54 204.24,424.30 204.85,423.05 205.47,421.80 206.08,420.55 206.70,419.30 207.31,418.05 207.93,416.81 208.54,415.56 209.16,414.31 209.77,413.06 210.39,411.81 211.00,410.56 211.62,409.32 212.23,408.07 212.85,406.82 213.46,405.57 214.08,404.32 214.69,403.07 215.31,401.83 215.92,400.58 216.54,399.33 217.15,398.08 217.77,396.83 218.38,395.58 219.00,394.34 219.61,393.09 220.23,391.84 220.84,390.59 221.46,389.34 222.07,388.09 222.69,386.85 223.30,385.60 223.92,384.35 224.53,383.10 225.15,381.85 225.76,380.60 226.38,379.36 226.99,378.11 227.61,376.86 228.22,375.61 228.84,374.36 229.45,373.11 230.07,371.87 230.69,370.62 231.30,369.37 231.92,368.12 232.53,366.87 233.15,365.62 233.76,364.38 234.38,363.13 234.99,361.88 235.61,360.63 236.22,359.38 236.84,358.13 237.45,356.89 238.07,355.64 238.68,354.39 239.30,353.14 239.91,351.89 240.53,350.64 241.14,349.40 241.76,348.15 242.37,346.90 242.99,345.65 243.60,344.40 244.22,343.15 244.83,341.91 245.45,340.66 246.06,339.41 246.68,338.16 247.29,336.91 247.91,335.66 248.52,334.42 249.14,333.17 249.75,331.92 250.37,330.67 250.98,329.42 251.60,328.17 252.21,326.93 252.83,325.68 253.44,324.43 254.06,323.18 254.67,321.93 255.29,320.68 255.90,319.44 256.52,318.19 257.13,316.94 257.75,315.69 258.36,314.44 258.98,313.19 259.59,311.95 260.21,310.70 260.82,309.45 261.44,308.20 262.05,306.95 262.67,305.70 263.28,304.46 263.90,303.21 264.51,301.96 265.13,300.71 265.74,299.46 266.36,298.21 266.97,296.97 267.59,295.72 268.20,294.47 268.82,293.22 269.43,291.97 270.05,290.72 270.66,289.48 271.28,288.23 271.89,286.98 272.51,285.73 273.12,284.48 273.74,283.23 274.35,281.99 274.97,280.74 275.58,279.49 276.20,278.24 276.81,276.99 277.43,275.74 278.04,274.50 278.66,273.25 279.27,272.00 279.89,270.75 280.50,269.50 281.12,268.25 281.73,267.01 282.35,265.76 282.96,264.51 283.58,263.26 284.19,262.01 284.81,260.76 285.42,259.52 286.04,258.27 286.65,257.02 287.27,255.77 287.88,254.52 288.50,253.27 289.11,252.03 289.73,250.78 290.34,249.53 290.96,248.28 291.57,247.03 292.19,245.78 292.80,244.54 293.42,243.29 294.03,242.04 294.65,240.79 295.26,239.54 295.88,238.29 296.49,237.05 297.11,235.80 297.72,234.55 298.34,233.30 298.95,232.05 299.57,230.80 300.18,229.56 300.80,228.31 301.41,227.06 302.03,225.81 302.64,224.56 303.26,223.31 303.87,222.07 304.49,220.82 305.10,219.57 305.72,218.32 306.34,217.07 306.95,215.82 307.57,214.58 308.18,213.33 308.80,212.08 309.41,210.83 310.03,209.58 310.64,208.33 311.26,207.09 311.87,205.84 312.49,204.59 313.10,203.34 313.72,202.09 314.33,200.84 314.95,199.60 315.56,198.35 316.18,197.10 316.79,195.85 317.41,194.60 318.02,193.35 318.64,192.11 319.25,190.86 319.87,189.61 320.48,188.36 321.10,187.11 321.71,185.86 322.33,184.62 322.94,183.37 323.56,182.12 324.17,180.87 324.79,179.62 325.40,178.37 326.02,177.13 326.63,175.88 327.25,174.63 327.86,173.38 328.48,172.13 329.09,170.88 329.71,169.64 330.32,168.39 330.94,167.14 331.55,165.89 332.17,164.64 332.78,163.39 333.40,162.15 334.01,160.90 334.63,159.65 335.24,158.40 335.86,157.15 336.47,155.90 337.09,154.66 337.70,153.41 338.32,152.16 338.93,150.91 339.55,149.66 340.16,148.41 340.78,147.17 341.39,145.92 342.01,144.67 342.62,143.42 343.24,142.17 343.85,140.92 344.47,139.68 345.08,138.43 345.70,137.18 346.31,135.93 346.93,134.68 347.54,133.43 348.16,132.19 348.77,130.94 349.39,129.69 350.00,128.44 350.62,127.19 351.23,125.94 351.85,124.70 352.46,123.45 353.08,122.20 353.69,120.95 354.31,119.70 354.92,118.45 355.54,117.21 356.15,115.96 356.77,114.71 357.38,113.46 358.00,112.21 358.61,110.96 359.23,109.72 359.84,108.47 360.46,107.22 361.07,105.97 361.69,104.72 362.30,103.47 362.92,102.23 363.53,100.98 364.15,99.73 364.76,98.48 365.38,97.23 365.99,95.98 366.61,94.74 367.22,93.49 367.84,92.24 368.45,90.99 369.07,89.74 369.68,88.49 370.30,87.25 370.91,86.00 371.53,84.75 372.14,83.50 372.76,82.25 373.37,81.00 373.99,79.76 374.60,78.51 375.22,77.26 375.83,76.01 376.45,74.76 377.06,73.51 377.68,72.27 378.29,71.02 378.91,69.77 379.52,68.52 380.14,67.27 380.75,66.02 381.37,64.78 381.99,63.53 382.60,62.28 383.22,61.03 383.83,59.78 384.45,58.53 385.06,57.29 385.68,56.04 386.29,54.79 386.91,53.54" fill="none" stroke="#2ca02c" stroke-width="2.2"/>
<line x1="890" y1="96" x2="910" y2="96" stroke="#2ca02c" stroke-width="3"/>
<text x="916" y="100" font-size="11" font-family="Arial">3) Linear (time-sensitive) | peak=0.767 °C/min</text>
<polyline points="80.00,676.46 80.62,676.42 81.23,676.38 81.85,676.34 82.46,676.30 83.08,676.26 83.69,676.22 84.31,676.18 84.92,676.13 85.54,676.09 86.15,676.04 86.77,675.99 87.38,675.94 88.00,675.89 88.61,675.84 89.23,675.79 89.84,675.73 90.46,675.68 91.07,675.62 91.69,675.57 92.30,675.51 92.92,675.45 93.53,675.38 94.15,675.32 94.76,675.25 95.38,675.19 95.99,675.12 96.61,675.05 97.22,674.98 97.84,674.90 98.45,674.83 99.07,674.75 99.68,674.67 100.30,674.59 100.91,674.51 101.53,674.43 102.14,674.34 102.76,674.25 103.37,674.16 103.99,674.07 104.60,673.97 105.22,673.87 105.83,673.77 106.45,673.67 107.06,673.57 107.68,673.46 108.29,673.35 108.91,673.24 109.52,673.12 110.14,673.00 110.75,672.88 111.37,672.76 111.98,672.63 112.60,672.50 113.21,672.37 113.83,672.24 114.44,672.10 115.06,671.95 115.67,671.81 116.29,671.66 116.90,671.51 117.52,671.35 118.13,671.19 118.75,671.03 119.36,670.86 119.98,670.69 120.59,670.51 121.21,670.33 121.82,670.14 122.44,669.96 123.05,669.76 123.67,669.56 124.28,669.36 124.90,669.15 125.51,668.94 126.13,668.72 126.74,668.50 127.36,668.27 127.97,668.04 128.59,667.80 129.20,667.56 129.82,667.31 130.43,667.05 131.05,666.79 131.66,666.52 132.28,666.25 132.89,665.97 133.51,665.68 134.12,665.39 134.74,665.09 135.35,664.78 135.97,664.46 136.58,664.14 137.20,663.81 137.81,663.47 138.43,663.13 139.04,662.77 139.66,662.41 140.27,662.04 140.89,661.67 141.50,661.28 142.12,660.88 142.73,660.48 143.35,660.06 143.96,659.64 144.58,659.20 145.19,658.76 145.81,658.31 146.42,657.84 147.04,657.37 147.65,656.88 148.27,656.39 148.88,655.88 149.50,655.36 150.11,654.83 150.73,654.29 151.34,653.73 151.96,653.16 152.57,652.58 153.19,651.99 153.80,651.39 154.42,650.77 155.03,650.13 155.65,649.48 156.27,648.82 156.88,648.15 157.50,647.46 158.11,646.75 158.73,646.03 159.34,645.29 159.96,644.54 160.57,643.77 161.19,642.98 161.80,642.17 162.42,641.35 163.03,640.52 163.65,639.66 164.26,638.78 164.88,637.89 165.49,636.98 166.11,636.05 166.72,635.09 167.34,634.12 167.95,633.13 168.57,632.12 169.18,631.09 169.80,630.03 170.41,628.96 171.03,627.86 171.64,626.74 172.26,625.59 172.87,624.43 173.49,623.24 174.10,622.02 174.72,620.79 175.33,619.52 175.95,618.24 176.56,616.92 177.18,615.58 177.79,614.22 178.41,612.83 179.02,611.41 179.64,609.97 180.25,608.49 180.87,606.99 181.48,605.47 182.10,603.91 182.71,602.32 183.33,600.71 183.94,599.06 184.56,597.39 185.17,595.69 185.79,593.95 186.40,592.19 187.02,590.39 187.63,588.56 188.25,586.70 188.86,584.81 189.48,582.89 190.09,580.93 190.71,578.94 191.32,576.92 191.94,574.87 192.55,572.78 193.17,570.66 193.78,568.50 194.40,566.31 195.01,564.09 195.63,561.83 196.24,559.54 196.86,557.21 197.47,554.85 198.09,552.45 198.70,550.02 199.32,547.55 199.93,545.05 200.55,542.52 201.16,539.95 201.78,537.34 202.39,534.70 203.01,532.03 203.62,529.32 204.24,526.57 204.85,523.80 205.47,520.98 206.08,518.14 206.70,515.26 207.31,512.34 207.93,509.40 208.54,506.42 209.16,503.41 209.77,500.36 210.39,497.29 211.00,494.18 211.62,491.04 212.23,487.88 212.85,484.68 213.46,481.45 214.08,478.19 214.69,474.91 215.31,471.59 215.92,468.25 216.54,464.88 217.15,461.49 217.77,458.07 218.38,454.63 219.00,451.16 219.61,447.67 220.23,444.16 220.84,440.63 221.46,437.07 222.07,433.50 222.69,429.91 223.30,426.30 223.92,422.67 224.53,419.03 225.15,415.37 225.76,411.69 226.38,408.01 226.99,404.31 227.61,400.60 228.22,396.88 228.84,393.15 229.45,389.41 230.07,385.67 230.69,381.92 231.30,378.16 231.92,374.41 232.53,370.64 233.15,366.88 233.76,363.12 234.38,359.36 234.99,355.59 235.61,351.84 236.22,348.08 236.84,344.33 237.45,340.59 238.07,336.85 238.68,333.12 239.30,329.40 239.91,325.69 240.53,321.99 241.14,318.31 241.76,314.63 242.37,310.97 242.99,307.33 243.60,303.70 244.22,300.09 244.83,296.50 245.45,292.93 246.06,289.37 246.68,285.84 247.29,282.33 247.91,278.84 248.52,275.37 249.14,271.93 249.75,268.51 250.37,265.12 250.98,261.75 251.60,258.41 252.21,255.09 252.83,251.81 253.44,248.55 254.06,245.32 254.67,242.12 255.29,238.96 255.90,235.82 256.52,232.71 257.13,229.64 257.75,226.59 258.36,223.58 258.98,220.60 259.59,217.66 260.21,214.74 260.82,211.86 261.44,209.02 262.05,206.20 262.67,203.43 263.28,200.68 263.90,197.97 264.51,195.30 265.13,192.66 265.74,190.05 266.36,187.48 266.97,184.95 267.59,182.45 268.20,179.98 268.82,177.55 269.43,175.15 270.05,172.79 270.66,170.46 271.28,168.17 271.89,165.91 272.51,163.69 273.12,161.50 273.74,159.34 274.35,157.22 274.97,155.13 275.58,153.08 276.20,151.06 276.81,149.07 277.43,147.11 278.04,145.19 278.66,143.30 279.27,141.44 279.89,139.61 280.50,137.81 281.12,136.05 281.73,134.31 282.35,132.61 282.96,130.94 283.58,129.29 284.19,127.68 284.81,126.09 285.42,124.53 286.04,123.01 286.65,121.51 287.27,120.03 287.88,118.59 288.50,117.17 289.11,115.78 289.73,114.42 290.34,113.08 290.96,111.76 291.57,110.48 292.19,109.21 292.80,107.98 293.42,106.76 294.03,105.57 294.65,104.41 295.26,103.26 295.88,102.14 296.49,101.04 297.11,99.97 297.72,98.91 298.34,97.88 298.95,96.87 299.57,95.88 300.18,94.91 300.80,93.95 301.41,93.02 302.03,92.11 302.64,91.22 303.26,90.34 303.87,89.48 304.49,88.65 305.10,87.83 305.72,87.02 306.34,86.23 306.95,85.46 307.57,84.71 308.18,83.97 308.80,83.25 309.41,82.54 310.03,81.85 310.64,81.18 311.26,80.52 311.87,79.87 312.49,79.23 313.10,78.61 313.72,78.01 314.33,77.42 314.95,76.84 315.56,76.27 316.18,75.71 316.79,75.17 317.41,74.64 318.02,74.12 318.64,73.61 319.25,73.12 319.87,72.63 320.48,72.16 321.10,71.69 321.71,71.24 322.33,70.80 322.94,70.36 323.56,69.94 324.17,69.52 324.79,69.12 325.40,68.72 326.02,68.33 326.63,67.96 327.25,67.59 327.86,67.23 328.48,66.87 329.09,66.53 329.71,66.19 330.32,65.86 330.94,65.54 331.55,65.22 332.17,64.91 332.78,64.61 333.40,64.32 334.01,64.03 334.63,63.75 335.24,63.48 335.86,63.21 336.47,62.95 337.09,62.69 337.70,62.44 338.32,62.20 338.93,61.96 339.55,61.73 340.16,61.50 340.78,61.28 341.39,61.06 342.01,60.85 342.62,60.64 343.24,60.44 343.85,60.24 344.47,60.04 345.08,59.86 345.70,59.67 346.31,59.49 346.93,59.31 347.54,59.14 348.16,58.97 348.77,58.81 349.39,58.65 350.00,58.49 350.62,58.34 351.23,58.19 351.85,58.05 352.46,57.90 353.08,57.76 353.69,57.63 354.31,57.50 354.92,57.37 355.54,57.24 356.15,57.12 356.77,57.00 357.38,56.88 358.00,56.76 358.61,56.65 359.23,56.54 359.84,56.43 360.46,56.33 361.07,56.23 361.69,56.13 362.30,56.03 362.92,55.93 363.53,55.84 364.15,55.75 364.76,55.66 365.38,55.57 365.99,55.49 366.61,55.41 367.22,55.33 367.84,55.25 368.45,55.17 369.07,55.10 369.68,55.02 370.30,54.95 370.91,54.88 371.53,54.81 372.14,54.75 372.76,54.68 373.37,54.62 373.99,54.55 374.60,54.49 375.22,54.43 375.83,54.38 376.45,54.32 377.06,54.27 377.68,54.21 378.29,54.16 378.91,54.11 379.52,54.06 380.14,54.01 380.75,53.96 381.37,53.91 381.99,53.87 382.60,53.82 383.22,53.78 383.83,53.74 384.45,53.70 385.06,53.66 385.68,53.62 386.29,53.58 386.91,53.54" fill="none" stroke="#9467bd" stroke-width="2.2"/>
<line x1="890" y1="114" x2="910" y2="114" stroke="#9467bd" stroke-width="3"/>
<text x="916" y="118" font-size="11" font-family="Arial">4) Sigmoid | peak=2.311 °C/min</text>
<polyline points="80.00,676.46 80.47,675.21 80.94,673.96 81.41,672.71 81.89,671.47 82.36,670.22 82.83,668.97 83.30,667.72 83.77,666.47 84.24,665.22 84.72,663.98 85.19,662.73 85.66,661.48 86.13,660.23 86.60,658.98 87.07,657.73 87.54,656.49 88.02,655.24 88.49,653.99 88.96,652.74 89.43,651.49 89.90,650.24 90.37,649.00 90.85,647.75 91.32,646.50 91.79,645.25 92.26,644.00 92.73,642.75 93.20,641.51 93.67,640.26 94.15,639.01 94.62,637.76 95.09,636.51 95.56,635.26 96.03,634.02 96.50,632.77 96.98,631.52 97.45,630.27 97.92,629.02 98.39,627.77 98.86,626.53 99.33,625.28 99.80,624.03 100.28,622.78 100.75,621.53 101.22,620.28 101.69,619.04 102.16,617.79 102.63,616.54 103.11,615.29 103.58,614.04 104.05,612.79 104.52,611.55 104.99,610.30 105.46,609.05 105.93,607.80 106.41,606.55 106.88,605.30 107.35,604.06 107.82,602.81 108.29,601.56 108.76,600.31 109.23,599.06 109.71,597.81 110.18,596.57 110.65,595.32 111.12,594.07 111.59,592.82 112.06,591.57 112.54,590.32 113.01,589.08 113.48,587.83 113.95,586.58 114.42,585.33 114.89,584.08 115.36,582.83 115.84,581.59 116.31,580.34 116.78,579.09 117.25,577.84 117.72,576.59 118.19,575.34 118.67,574.10 119.14,572.85 119.61,571.60 120.08,570.35 120.55,569.10 121.02,567.85 121.49,566.61 121.97,565.36 122.44,564.11 122.91,562.86 123.38,561.61 123.85,560.36 124.32,559.12 124.80,557.87 125.27,556.62 125.74,555.37 126.21,554.12 126.68,552.87 127.15,551.63 127.62,550.38 128.10,549.13 128.57,547.88 129.04,546.63 129.51,545.38 129.98,544.14 130.45,542.89 130.93,541.64 131.40,540.39 131.87,539.14 132.34,537.89 132.81,536.65 133.28,535.40 133.75,534.15 134.23,532.90 134.70,531.65 135.17,530.40 135.64,529.16 136.11,527.91 136.58,526.66 137.06,525.41 137.53,524.16 138.00,522.91 138.47,521.67 138.94,520.42 139.41,519.17 139.88,517.92 140.36,516.67 140.83,515.42 141.30,514.18 141.77,512.93 142.24,511.68 142.71,510.43 143.19,509.18 143.66,507.93 144.13,506.69 144.60,505.44 145.07,504.19 145.54,502.94 146.01,501.69 146.49,500.44 146.96,499.20 147.43,497.95 147.90,496.70 148.37,495.45 148.84,494.20 149.32,492.95 149.79,491.71 150.26,490.46 150.73,489.21 151.20,487.96 151.67,486.71 152.14,485.46 152.62,484.22 153.09,482.97 153.56,481.72 154.03,480.47 154.50,479.22 154.97,477.97 155.45,476.73 155.92,475.48 156.39,474.23 156.86,472.98 157.33,471.73 157.80,470.48 158.27,469.24 158.75,467.99 159.22,466.74 159.69,465.49 160.16,464.24 160.63,462.99 161.10,461.75 161.57,460.50 162.05,459.25 162.52,458.00 162.99,456.75 163.46,455.50 163.93,454.26 164.40,453.01 164.88,451.76 165.35,450.51 165.82,449.26 166.29,448.01 166.76,446.77 167.23,445.52 167.70,444.27 168.18,443.02 168.65,441.77 169.12,440.52 169.59,439.28 170.06,438.03 170.53,436.78 171.01,435.53 171.48,434.28 171.95,433.03 172.42,431.79 172.89,430.54 173.36,429.29 173.83,428.04 174.31,426.79 174.78,425.54 175.25,424.30 175.72,423.05 176.19,421.80 176.66,420.55 177.14,419.30 177.61,418.05 178.08,416.81 178.55,415.56 179.02,414.31 179.49,413.06 179.96,411.81 180.44,410.56 180.91,409.32 181.38,408.07 181.85,406.82 182.32,405.57 182.79,404.32 183.27,403.07 183.74,401.83 184.21,400.58 184.68,399.33 185.15,398.08 185.62,396.83 186.09,395.58 186.57,394.34 187.04,393.09 187.51,391.84 187.98,390.59 188.45,389.34 188.92,388.09 189.40,386.85 189.87,385.60 190.34,384.35 190.81,383.10 191.28,381.85 191.75,380.60 192.22,379.36 192.70,378.11 193.17,376.86 193.64,375.61 194.11,374.36 194.58,373.11 195.05,371.87 195.53,370.62 196.00,369.37 196.47,368.12 196.94,366.87 197.41,365.62 197.88,364.38 198.35,363.13 198.83,361.88 199.30,360.63 199.77,359.38 200.24,358.13 200.71,356.89 201.18,355.64 201.66,354.39 202.13,353.14 202.60,351.89 203.07,350.64 203.54,349.40 204.01,348.15 204.48,346.90 204.96,345.65 205.43,344.40 205.90,343.15 206.37,341.91 206.84,340.66 207.31,339.41 207.78,338.16 208.26,336.91 208.73,335.66 209.20,334.42 209.67,333.17 210.14,331.92 210.61,330.67 211.09,329.42 211.56,328.17 212.03,326.93 212.50,325.68 212.97,324.43 213.44,323.18 213.91,321.93 214.39,320.68 214.86,319.44 215.33,318.19 215.80,316.94 216.27,315.69 216.74,314.44 217.22,313.19 217.69,311.95 218.16,310.70 218.63,309.45 219.10,308.20 219.57,306.95 220.04,305.70 220.52,304.46 220.99,303.21 221.46,301.96 221.93,300.71 222.40,299.46 222.87,298.21 223.35,296.97 223.82,295.72 224.29,294.47 224.76,293.22 225.23,291.97 225.70,290.72 226.17,289.48 226.65,288.23 227.12,286.98 227.59,285.73 228.06,284.48 228.53,283.23 229.00,281.99 229.48,280.74 229.95,279.49 230.42,278.24 230.89,276.99 231.36,275.74 231.83,274.50 232.30,273.25 232.78,272.00 233.25,270.75 233.72,269.50 234.19,268.25 234.66,267.01 235.13,265.76 235.61,264.51 236.08,263.26 236.55,262.01 237.02,260.76 237.49,259.52 237.96,258.27 238.43,257.02 238.91,255.77 239.38,254.52 239.85,253.27 240.32,252.03 240.79,250.78 241.26,249.53 241.74,248.28 242.21,247.03 242.68,245.78 243.15,244.54 243.62,243.29 244.09,242.04 244.56,240.79 245.04,239.54 245.51,238.29 245.98,237.05 246.45,235.80 246.92,234.55 247.39,233.30 247.87,232.05 248.34,230.80 248.81,229.56 249.28,228.31 249.75,227.06 250.22,225.81 250.69,224.56 251.17,223.31 251.64,222.07 252.11,220.82 252.58,219.57 253.05,218.32 253.52,217.07 254.00,215.82 254.47,214.58 254.94,213.33 255.41,212.08 255.88,210.83 256.35,209.58 256.82,208.33 257.30,207.09 257.77,205.84 258.24,204.59 258.71,203.34 259.18,202.09 259.65,200.84 260.12,199.60 260.60,198.35 261.07,197.10 261.54,195.85 262.01,194.60 262.48,193.35 262.95,192.11 263.43,190.86 263.90,189.61 264.37,188.36 264.84,187.11 265.31,185.86 265.78,184.62 266.25,183.37 266.73,182.12 267.20,180.87 267.67,179.62 268.14,178.37 268.61,177.13 269.08,175.88 269.56,174.63 270.03,173.38 270.50,172.13 270.97,170.88 271.44,169.64 271.91,168.39 272.38,167.14 272.86,165.89 273.33,164.64 273.80,163.39 274.27,162.15 274.74,160.90 275.21,159.65 275.69,158.40 276.16,157.15 276.63,155.90 277.10,154.66 277.57,153.41 278.04,152.16 278.51,150.91 278.99,149.66 279.46,148.41 279.93,147.17 280.40,145.92 280.87,144.67 281.34,143.42 281.82,142.17 282.29,140.92 282.76,139.68 283.23,138.43 283.70,137.18 284.17,135.93 284.64,134.68 285.12,133.43 285.59,132.19 286.06,130.94 286.53,129.69 287.00,128.44 287.47,127.19 287.95,125.94 288.42,124.70 288.89,123.45 289.36,122.20 289.83,120.95 290.30,119.70 290.77,118.45 291.25,117.21 291.72,115.96 292.19,114.71 292.66,113.46 293.13,112.21 293.60,110.96 294.08,109.72 294.55,108.47 295.02,107.22 295.49,105.97 295.96,104.72 296.43,103.47 296.90,102.23 297.38,100.98 297.85,99.73 298.32,98.48 298.79,97.23 299.26,95.98 299.73,94.74 300.21,93.49 300.68,92.24 301.15,90.99 301.62,89.74 302.09,88.49 302.56,87.25 303.03,86.00 303.51,84.75 303.98,83.50 304.45,82.25 304.92,81.00 305.39,79.76 305.86,78.51 306.34,77.26 306.81,76.01 307.28,74.76 307.75,73.51 308.22,72.27 308.69,71.02 309.16,69.77 309.64,68.52 310.11,67.27 310.58,66.02 311.05,64.78 311.52,63.53 311.99,62.28 312.46,61.03 312.94,59.78 313.41,58.53 313.88,57.29 314.35,56.04 314.82,54.79 315.29,53.54" fill="none" stroke="#ff7f0e" stroke-width="2.2"/>
<line x1="890" y1="132" x2="910" y2="132" stroke="#ff7f0e" stroke-width="3"/>
<text x="916" y="136" font-size="11" font-family="Arial">5) Kidney linear (1.0 °C/min) | peak=1.000 °C/min</text>
<polyline points="80.00,676.46 81.57,675.21 83.14,673.96 84.72,672.71 86.29,671.47 87.86,670.22 89.43,668.97 91.00,667.72 92.57,666.47 94.15,665.22 95.72,663.98 97.29,662.73 98.86,661.48 100.43,660.23 102.00,658.98 103.58,657.73 105.15,656.49 106.72,655.24 108.29,653.99 109.86,652.74 111.44,651.49 113.01,650.24 114.58,649.00 116.15,647.75 117.72,646.50 119.29,645.25 120.87,644.00 122.44,642.75 124.01,641.51 125.58,640.26 127.15,639.01 128.72,637.76 130.30,636.51 131.87,635.26 133.44,634.02 135.01,632.77 136.58,631.52 138.16,630.27 139.73,629.02 141.30,627.77 142.87,626.53 144.44,625.28 146.01,624.03 147.59,622.78 149.16,621.53 150.73,620.28 152.30,619.04 153.87,617.79 155.45,616.54 157.02,615.29 158.59,614.04 160.16,612.79 161.73,611.55 163.30,610.30 164.88,609.05 166.45,607.80 168.02,606.55 169.59,605.30 171.16,604.06 172.73,602.81 174.31,601.56 175.88,600.31 177.45,599.06 179.02,597.81 180.59,596.57 182.17,595.32 183.74,594.07 185.31,592.82 186.88,591.57 188.45,590.32 190.02,589.08 191.60,587.83 193.17,586.58 194.74,585.33 196.31,584.08 197.88,582.83 199.45,581.59 201.03,580.34 202.60,579.09 204.17,577.84 205.74,576.59 207.31,575.34 208.89,574.10 210.46,572.85 212.03,571.60 213.60,570.35 215.17,569.10 216.74,567.85 218.32,566.61 219.89,565.36 221.46,564.11 223.03,562.86 224.60,561.61 226.17,560.36 227.75,559.12 229.32,557.87 230.89,556.62 232.46,555.37 234.03,554.12 235.61,552.87 237.18,551.63 238.75,550.38 240.32,549.13 241.89,547.88 243.46,546.63 245.04,545.38 246.61,544.14 248.18,542.89 249.75,541.64 251.32,540.39 252.89,539.14 254.47,537.89 256.04,536.65 257.61,535.40 259.18,534.15 260.75,532.90 262.33,531.65 263.90,530.40 265.47,529.16 267.04,527.91 268.61,526.66 270.18,525.41 271.76,524.16 273.33,522.91 274.90,521.67 276.47,520.42 278.04,519.17 279.61,517.92 281.19,516.67 282.76,515.42 284.33,514.18 285.90,512.93 287.47,511.68 289.05,510.43 290.62,509.18 292.19,507.93 293.76,506.69 295.33,505.44 296.90,504.19 298.48,502.94 300.05,501.69 301.62,500.44 303.19,499.20 304.76,497.95 306.34,496.70 307.91,495.45 309.48,494.20 311.05,492.95 312.62,491.71 314.19,490.46 315.77,489.21 317.34,487.96 318.91,486.71 320.48,485.46 322.05,484.22 323.62,482.97 325.20,481.72 326.77,480.47 328.34,479.22 329.91,477.97 331.48,476.73 333.06,475.48 334.63,474.23 336.20,472.98 337.77,471.73 339.34,470.48 340.91,469.24 342.49,467.99 344.06,466.74 345.63,465.49 347.20,464.24 348.77,462.99 350.34,461.75 351.92,460.50 353.49,459.25 355.06,458.00 356.63,456.75 358.20,455.50 359.78,454.26 361.35,453.01 362.92,451.76 364.49,450.51 366.06,449.26 367.63,448.01 369.21,446.77 370.78,445.52 372.35,444.27 373.92,443.02 375.49,441.77 377.06,440.52 378.64,439.28 380.21,438.03 381.78,436.78 383.35,435.53 384.92,434.28 386.50,433.03 388.07,431.79 389.64,430.54 391.21,429.29 392.78,428.04 394.35,426.79 395.93,425.54 397.50,424.30 399.07,423.05 400.64,421.80 402.21,420.55 403.78,419.30 405.36,418.05 406.93,416.81 408.50,415.56 410.07,414.31 411.64,413.06 413.22,411.81 414.79,410.56 416.36,409.32 417.93,408.07 419.50,406.82 421.07,405.57 422.65,404.32 424.22,403.07 425.79,401.83 427.36,400.58 428.93,399.33 430.50,398.08 432.08,396.83 433.65,395.58 435.22,394.34 436.79,393.09 438.36,391.84 439.94,390.59 441.51,389.34 443.08,388.09 444.65,386.85 446.22,385.60 447.79,384.35 449.37,383.10 450.94,381.85 452.51,380.60 454.08,379.36 455.65,378.11 457.23,376.86 458.80,375.61 460.37,374.36 461.94,373.11 463.51,371.87 465.08,370.62 466.66,369.37 468.23,368.12 469.80,366.87 471.37,365.62 472.94,364.38 474.51,363.13 476.09,361.88 477.66,360.63 479.23,359.38 480.80,358.13 482.37,356.89 483.95,355.64 485.52,354.39 487.09,353.14 488.66,351.89 490.23,350.64 491.80,349.40 493.38,348.15 494.95,346.90 496.52,345.65 498.09,344.40 499.66,343.15 501.23,341.91 502.81,340.66 504.38,339.41 505.95,338.16 507.52,336.91 509.09,335.66 510.67,334.42 512.24,333.17 513.81,331.92 515.38,330.67 516.95,329.42 518.52,328.17 520.10,326.93 521.67,325.68 523.24,324.43 524.81,323.18 526.38,321.93 527.95,320.68 529.53,319.44 531.10,318.19 532.67,316.94 534.24,315.69 535.81,314.44 537.39,313.19 538.96,311.95 540.53,310.70 542.10,309.45 543.67,308.20 545.24,306.95 546.82,305.70 548.39,304.46 549.96,303.21 551.53,301.96 553.10,300.71 554.67,299.46 556.25,298.21 557.82,296.97 559.39,295.72 560.96,294.47 562.53,293.22 564.11,291.97 565.68,290.72 567.25,289.48 568.82,288.23 570.39,286.98 571.96,285.73 573.54,284.48 575.11,283.23 576.68,281.99 578.25,280.74 579.82,279.49 581.39,278.24 582.97,276.99 584.54,275.74 586.11,274.50 587.68,273.25 589.25,272.00 590.83,270.75 592.40,269.50 593.97,268.25 595.54,267.01 597.11,265.76 598.68,264.51 600.26,263.26 601.83,262.01 603.40,260.76 604.97,259.52 606.54,258.27 608.12,257.02 609.69,255.77 611.26,254.52 612.83,253.27 614.40,252.03 615.97,250.78 617.55,249.53 619.12,248.28 620.69,247.03 622.26,245.78 623.83,244.54 625.40,243.29 626.98,242.04 628.55,240.79 630.12,239.54 631.69,238.29 633.26,237.05 634.84,235.80 636.41,234.55 637.98,233.30 639.55,232.05 641.12,230.80 642.69,229.56 644.27,228.31 645.84,227.06 647.41,225.81 648.98,224.56 650.55,223.31 652.12,222.07 653.70,220.82 655.27,219.57 656.84,218.32 658.41,217.07 659.98,215.82 661.56,214.58 663.13,213.33 664.70,212.08 666.27,210.83 667.84,209.58 669.41,208.33 670.99,207.09 672.56,205.84 674.13,204.59 675.70,203.34 677.27,202.09 678.84,200.84 680.42,199.60 681.99,198.35 683.56,197.10 685.13,195.85 686.70,194.60 688.28,193.35 689.85,192.11 691.42,190.86 692.99,189.61 694.56,188.36 696.13,187.11 697.71,185.86 699.28,184.62 700.85,183.37 702.42,182.12 703.99,180.87 705.56,179.62 707.14,178.37 708.71,177.13 710.28,175.88 711.85,174.63 713.42,173.38 715.00,172.13 716.57,170.88 718.14,169.64 719.71,168.39 721.28,167.14 722.85,165.89 724.43,164.64 726.00,163.39 727.57,162.15 729.14,160.90 730.71,159.65 732.28,158.40 733.86,157.15 735.43,155.90 737.00,154.66 738.57,153.41 740.14,152.16 741.72,150.91 743.29,149.66 744.86,148.41 746.43,147.17 748.00,145.92 749.57,144.67 751.15,143.42 752.72,142.17 754.29,140.92 755.86,139.68 757.43,138.43 759.01,137.18 760.58,135.93 762.15,134.68 763.72,133.43 765.29,132.19 766.86,130.94 768.44,129.69 770.01,128.44 771.58,127.19 773.15,125.94 774.72,124.70 776.29,123.45 777.87,122.20 779.44,120.95 781.01,119.70 782.58,118.45 784.15,117.21 785.73,115.96 787.30,114.71 788.87,113.46 790.44,112.21 792.01,110.96 793.58,109.72 795.16,108.47 796.73,107.22 798.30,105.97 799.87,104.72 801.44,103.47 803.01,102.23 804.59,100.98 806.16,99.73 807.73,98.48 809.30,97.23 810.87,95.98 812.45,94.74 814.02,93.49 815.59,92.24 817.16,90.99 818.73,89.74 820.30,88.49 821.88,87.25 823.45,86.00 825.02,84.75 826.59,83.50 828.16,82.25 829.73,81.00 831.31,79.76 832.88,78.51 834.45,77.26 836.02,76.01 837.59,74.76 839.17,73.51 840.74,72.27 842.31,71.02 843.88,69.77 845.45,68.52 847.02,67.27 848.60,66.02 850.17,64.78 851.74,63.53 853.31,62.28 854.88,61.03 856.45,59.78 858.03,58.53 859.60,57.29 861.17,56.04 862.74,54.79 864.31,53.54" fill="none" stroke="#8c564b" stroke-width="2.2"/>
<line x1="890" y1="150" x2="910" y2="150" stroke="#8c564b" stroke-width="3"/>
<text x="916" y="154" font-size="11" font-family="Arial">6) Horse sperm linear (0.3 °C/min) | peak=0.300 °C/min</text>
<text x="890" y="186" font-size="12" font-family="Arial">Equations (numeric):</text>
<text x="890" y="202" font-size="10" font-family="Arial">1) Hyperbolic / negative exponential: T(t)=4.000+23.000*(1-exp(-5.000*t/30.000))/(1-exp(-5.000))</text>
<text x="890" y="216" font-size="10" font-family="Arial">2) Natural positive exponential: T(t)=4.000+23.000*(exp(5.000*t/30.000)-1)/(exp(5.000)-1)</text>
<text x="890" y="230" font-size="10" font-family="Arial">3) Linear (time-sensitive): T(t)=4.000+0.767*t  (0&lt;=t&lt;=30.0)</text>
<text x="890" y="244" font-size="10" font-family="Arial">4) Sigmoid: T(t)=4.000+23.000*norm_sigmoid(t/30.000, alpha=12.000)</text>
<text x="890" y="258" font-size="10" font-family="Arial">5) Kidney linear (1.0 °C/min): T(t)=4.000+1.000*t  (clamped at 27.000)</text>
<text x="890" y="272" font-size="10" font-family="Arial">6) Horse sperm linear (0.3 °C/min): T(t)=4.000+0.300*t  (clamped at 27.000)</text>
<text x="480.0" y="748" font-size="12" text-anchor="middle">Time (min)</text>
<text x="18" y="365.0" font-size="12" transform="rotate(-90,18,365.0)" text-anchor="middle">Temperature (°C)</text>
</svg>